<?xml version="1.0" encoding="UTF-8"?>
<svg version="1.1" xmlns="http://www.w3.org/2000/svg" width="3508" height="3508">
<path d="M0 0 C147.84302021 0 147.84302021 0 175.3125 26.75 C189.61006154 41.2701006 194.40476958 60.17079966 194.30029297 80.07568359 C193.81444641 100.96708541 186.55665424 119.10660061 171.3125 133.75 C160.54447705 142.9654243 147.36009694 148.63832129 134 153 C135.27242652 155.66148909 136.65600662 158.07233827 138.36328125 160.4765625 C138.83113037 161.137771 139.29897949 161.79897949 139.78100586 162.48022461 C140.28639893 163.18800049 140.79179199 163.89577637 141.3125 164.625 C141.84302979 165.37209229 142.37355957 166.11918457 142.92016602 166.88891602 C148.35973236 174.53524179 153.85727611 182.13973259 159.36328125 189.73828125 C160.98509064 191.97939733 162.60265132 194.22351315 164.21875 196.46875 C169.83078488 204.26239103 175.48005972 212.02589473 181.1875 219.75 C186.41743429 226.83058135 191.59073253 233.94604217 196.67578125 241.13134766 C198.20704642 243.2921706 199.74430251 245.44868418 201.28125 247.60546875 C202.39604363 249.17432976 203.51062975 250.74333824 204.625 252.3125 C205.15883301 253.06096191 205.69266602 253.80942383 206.24267578 254.58056641 C206.7323584 255.2719873 207.22204102 255.9634082 207.7265625 256.67578125 C208.38519287 257.6025769 208.38519287 257.6025769 209.05712891 258.5480957 C210 260 210 260 210 261 C202.51695448 261.3964692 195.03501047 261.69717556 187.5438118 261.88080692 C184.06299784 261.96903711 180.58943063 262.08822041 177.11279297 262.2824707 C154.78994383 263.49694204 154.78994383 263.49694204 148.62866211 259.43768311 C144.73271775 255.55161146 142.27634941 251.04619635 139.99108887 246.08102417 C138.68542553 243.33947692 137.00152527 240.99052175 135.1875 238.5625 C134.12472694 237.04185747 133.06222164 235.52102777 132 234 C127.68129524 227.82291454 123.35107455 221.65432737 119 215.5 C114.0538943 208.50403766 109.13697154 201.48799636 104.22851562 194.46557617 C101.3806967 190.39336894 98.52710148 186.32554216 95.65625 182.26953125 C95.12386719 181.51736328 94.59148438 180.76519531 94.04296875 179.99023438 C93.05711662 178.59881016 92.070239 177.20811159 91.08203125 175.81835938 C87.62190775 170.93552034 84.32371668 165.98557502 81 161 C70.44 160.67 59.88 160.34 49 160 C49 193.33 49 226.66 49 261 C32.83 261 16.66 261 0 261 C0 174.87 0 88.74 0 0 Z M49 41 C49 66.74 49 92.48 49 119 C55.868125 119.061875 62.73625 119.12375 69.8125 119.1875 C72.99869995 119.22846802 72.99869995 119.22846802 76.24926758 119.27026367 C96.98553496 119.42456423 120.20418382 118.25202578 136 103 C142.78054168 93.78227567 145.17622574 83.30070042 144 72 C142.34515751 63.60687669 139.90303185 56.36902477 133 51 C115.12118973 39.49153305 95.49406582 40.60313741 75 40.8125 C62.13 40.9053125 62.13 40.9053125 49 41 Z " fill="#005952" transform="translate(2578,1646)"/>
<path d="M0 0 C15.18 0 30.36 0 46 0 C47.98 5.115 49.96 10.23 52 15.5 C56.9535073 28.25654126 61.96611329 40.98739359 67.0625 53.6875 C74.68759094 72.69180548 82.25531566 91.71861637 89.8125 110.75 C90.43779319 112.32459585 91.0630882 113.89919099 91.68838501 115.4737854 C94.54299954 122.66229617 97.39729801 129.85093236 100.25129795 137.03968716 C103.96137675 146.38472721 107.672746 155.72925398 111.38479614 165.07351112 C117.51735097 180.51093149 123.64735531 195.94936215 129.77365494 211.38926601 C131.4553758 215.62764522 133.1375338 219.86585074 134.81982422 224.10400391 C136.90513667 229.35812298 138.98864005 234.61295532 141.07043457 239.86846924 C141.80723884 241.72787143 142.54461237 243.58704817 143.28259277 245.44598389 C144.26682818 247.92559477 145.24896744 250.40602463 146.23046875 252.88671875 C146.65947731 253.96552055 146.65947731 253.96552055 147.09715271 255.06611633 C149 259.88563565 149 259.88563565 149 261 C131.84 261 114.68 261 97 261 C89.5625 241.9375 89.5625 241.9375 87.15649414 235.76708984 C84.09456858 227.91532953 81.03114321 220.06434951 77.93359375 212.2265625 C77.30118774 210.62373413 77.30118774 210.62373413 76.65600586 208.98852539 C75.90315255 207.08293998 75.14759196 205.17842121 74.38891602 203.27514648 C74.06463623 202.45344971 73.74035645 201.63175293 73.40625 200.78515625 C73.13103516 200.09301025 72.85582031 199.40086426 72.57226562 198.68774414 C72 197 72 197 72 195 C39.66 195 7.32 195 -26 195 C-26.99 198.3 -27.98 201.6 -29 205 C-29.65420816 206.88542657 -30.32896091 208.76404589 -31.03710938 210.62988281 C-31.40759399 211.61079895 -31.77807861 212.59171509 -32.15979004 213.60235596 C-32.74585022 215.13723663 -32.74585022 215.13723663 -33.34375 216.703125 C-33.75411499 217.78454773 -34.16447998 218.86597046 -34.58728027 219.98016357 C-35.4495473 222.24979436 -36.31354586 224.518768 -37.17919922 226.78710938 C-38.50077273 230.25202595 -39.81520131 233.71959356 -41.12890625 237.1875 C-41.97092935 239.4012033 -42.81336308 241.61475046 -43.65625 243.828125 C-44.04695679 244.85947571 -44.43766357 245.89082642 -44.84020996 246.95343018 C-45.39593689 248.40589142 -45.39593689 248.40589142 -45.96289062 249.88769531 C-46.28471313 250.73245422 -46.60653564 251.57721313 -46.93811035 252.4475708 C-48.15037783 255.36145825 -49.58859414 258.17718828 -51 261 C-68.16 261 -85.32 261 -103 261 C-96.07916394 242.54443717 -96.07916394 242.54443717 -93.0390625 234.78125 C-92.6921788 233.893237 -92.3452951 233.005224 -91.98789978 232.09030151 C-90.86838918 229.2262955 -89.74690823 226.36306758 -88.625 223.5 C-88.03342606 221.98904755 -88.03342606 221.98904755 -87.42990112 220.4475708 C-81.56632082 205.47563451 -75.63723141 190.53130431 -69.65014648 175.60839844 C-63.12395817 159.33759209 -56.65403927 143.04457656 -50.1875 126.75 C-49.76059687 125.67431574 -49.76059687 125.67431574 -49.32506943 124.57690048 C-46.69193857 117.94208535 -44.05895641 111.30721122 -41.42625427 104.67222595 C-37.45306689 94.65927771 -33.47700084 84.64747622 -29.49913216 74.63638687 C-27.67248236 70.03913182 -25.846147 65.44175185 -24.01977825 60.84438515 C-22.57185183 57.19973182 -21.12373134 53.55515586 -19.67514038 49.9107666 C-13.06963613 33.29207512 -6.50052135 16.66014119 0 0 Z M22 65 C21.67016113 65.99588135 21.34032227 66.9917627 21.00048828 68.01782227 C13.14348559 91.66996399 4.70741356 115.03967851 -4.30810547 138.27563477 C-4.68741211 139.25347427 -5.06671875 140.23131378 -5.45751953 141.23878479 C-6.17399554 143.08273599 -6.89249368 144.92590311 -7.61328125 146.76817322 C-7.92894043 147.57815262 -8.24459961 148.38813202 -8.56982422 149.22265625 C-8.84736542 149.93172119 -9.12490662 150.64078613 -9.41085815 151.37133789 C-10.05669371 152.86807054 -10.05669371 152.86807054 -10 154 C11.78 154 33.56 154 56 154 C53.57427416 145.83499989 53.57427416 145.83499989 50.6796875 137.9296875 C50.23463867 136.80828369 49.78958984 135.68687988 49.33105469 134.53149414 C48.85055664 133.32485107 48.37005859 132.11820801 47.875 130.875 C39.30092372 109.14497583 31.71408468 87.04593008 24 65 C23.34 65 22.68 65 22 65 Z " fill="#005952" transform="translate(2224,1646)"/>
<path d="M0 0 C15.84 0 31.68 0 48 0 C48.33 93.39 48.66 186.78 49 283 C34.81 283 20.62 283 6 283 C5.34 277.72 4.68 272.44 4 267 C3.67 266.34 3.34 265.68 3 265 C2.37996094 265.6290625 1.75992187 266.258125 1.12109375 266.90625 C-12.11218262 279.69649091 -28.41842158 287.17175135 -47 288 C-47.66515625 288.03996094 -48.3303125 288.07992188 -49.015625 288.12109375 C-69.97524588 288.78093367 -89.09098661 281.82311517 -104.875 268.125 C-125.66802567 248.26480182 -131.58738568 219.71286948 -132.25 192 C-131.53769888 160.48067558 -123.12591955 130.27486101 -99.875 107.875 C-82.6276238 92.76278729 -62.17955139 88.03439764 -39.66943359 88.81640625 C-25.0661653 89.82076493 -11.99457071 96.00361953 0 104 C0 69.68 0 35.36 0 0 Z M-70 141 C-80.30901829 155.35332547 -83.40633084 171.88313615 -83.3125 189.25 C-83.30758545 190.33756592 -83.3026709 191.42513184 -83.29760742 192.5456543 C-83.04359975 210.12168292 -79.65034003 226.7975905 -67.19140625 239.90234375 C-58.94123914 247.75411244 -48.95932435 250.37850785 -37.765625 250.2109375 C-24.62709644 249.20884634 -11.93368963 243.33144589 -2.34451294 234.36038208 C2.8757562 227.95184105 1.63237999 218.44348563 1.56640625 210.65234375 C1.58145941 208.67035163 1.59932444 206.68837908 1.61985779 204.70643616 C1.64950623 200.56600362 1.63818412 196.42817325 1.59887695 192.2878418 C1.55294046 186.99699713 1.62029131 181.71454966 1.71977329 176.42468929 C1.78222184 172.33620273 1.77888292 168.24971457 1.75660515 164.16089058 C1.75481946 162.21167615 1.77443641 160.26231361 1.81643867 158.31355095 C2.33736732 148.27622416 2.33736732 148.27622416 -1.34111404 139.3172493 C-5.09764973 135.97135333 -9.38093049 133.89517982 -14 132 C-14.64145399 131.72004622 -15.28290798 131.44009243 -15.94379997 131.1516552 C-34.77270158 122.97810589 -56.06397175 124.80672774 -70 141 Z " fill="#005952" transform="translate(1045,1624)"/>
<path d="M0 0 C3.00184582 1.53427675 4.46469345 2.84721265 5.890625 5.91796875 C8.13950888 13.30529079 5.19173552 18.87664334 1.72045898 25.40722656 C0.33339293 27.81947171 -1.10139725 30.19439965 -2.5625 32.5625 C-3.09206299 33.43326172 -3.62162598 34.30402344 -4.16723633 35.20117188 C-7.42227237 40.52415314 -10.77100014 45.77962465 -14.1875 51 C-27.35517924 71.12864197 -39.45586868 91.90540998 -51 113 C-51.66394775 114.2060791 -51.66394775 114.2060791 -52.34130859 115.43652344 C-57.32007879 124.4246692 -57.32007879 124.4246692 -61 134 C-60.40574219 133.54109375 -59.81148437 133.0821875 -59.19921875 132.609375 C-49.57086355 125.48169681 -40.18489532 121.32414047 -28 123 C-21.84671097 124.82997443 -18.24931119 129.68988406 -15 135 C-9.06417302 152.80748094 -18.17645948 173.2972849 -26 189 C-37.38524897 211.68716583 -57.5179614 239.6424633 -82.41015625 248.16796875 C-91.80717724 250.34595076 -100.70157728 250.1257296 -109.14453125 245.2890625 C-111 244 -111 244 -113 242 C-113.42410156 242.85464844 -113.84820313 243.70929688 -114.28515625 244.58984375 C-119.08235795 253.62545222 -119.08235795 253.62545222 -123.0625 255.25 C-124.361875 255.1675 -125.66125 255.085 -127 255 C-128.08023438 255.04125 -129.16046875 255.0825 -130.2734375 255.125 C-139.51410047 255.4402465 -145.7670934 254.73306712 -153.125 249.0625 C-161.96136506 240.74694231 -164.20991836 229.49420844 -166 218 C-166.35191406 218.44279297 -166.70382813 218.88558594 -167.06640625 219.34179688 C-188.13855635 245.77826717 -188.13855635 245.77826717 -201.5625 248 C-207.20806702 248.319184 -212.34030582 247.14398006 -216.79296875 243.5546875 C-223.58895225 236.33919884 -224.43676298 228.25386376 -224.23828125 218.6640625 C-223.87264617 213.04167389 -223.02989915 207.53570791 -222 202 C-222.89138672 203.30710937 -222.89138672 203.30710937 -223.80078125 204.640625 C-235.06351252 220.91949204 -247.78363558 235.96592445 -266.625 243.4375 C-272.00905825 244.33484304 -276.70757307 243.86602795 -281.8125 241.9375 C-285.90792747 238.31012138 -288.13113936 233.32265283 -288.56640625 227.87890625 C-288.59426808 226.44037337 -288.59188979 225.00100248 -288.5625 223.5625 C-288.54606445 222.39678467 -288.54606445 222.39678467 -288.52929688 221.20751953 C-287.64219303 196.83680565 -271.92131752 175.34074802 -260 155 C-291.69130207 174.4600047 -311.19909839 206.74802068 -324.66650391 240.68994141 C-328.20827577 249.36984222 -328.20827577 249.36984222 -333 252 C-335.84857921 252.41737424 -338.27753556 251.9035511 -341 251 C-344.28286722 248.35252643 -344.46238537 245.17247236 -344.91821289 241.10766602 C-345.15649203 234.96717706 -342.08761417 228.70046041 -340 223 C-339.49774902 221.62497314 -339.49774902 221.62497314 -338.98535156 220.22216797 C-319.26316201 166.98623115 -294.32312053 114.5321504 -266.03125 65.31640625 C-263.4959551 60.8998514 -261.05495308 56.43923709 -258.64257812 51.95458984 C-253.84075429 43.02932064 -248.87549417 34.20762116 -243.73696899 25.47229004 C-242.71904353 23.74114482 -241.70648012 22.00685014 -240.6940918 20.27246094 C-230.65103599 3.32551799 -230.65103599 3.32551799 -226 1 C-218.75912409 0.41605839 -218.75912409 0.41605839 -215.5625 2.875 C-212.47138142 7.07892127 -212.27185655 10.91800911 -213 16 C-216.0820456 25.04729515 -222.20193516 33.13358049 -227.34033203 41.10498047 C-234.25521435 51.8628621 -240.66060879 62.89586915 -247 74 C-247.57218262 74.99870117 -248.14436523 75.99740234 -248.73388672 77.02636719 C-260.90840816 98.32576972 -272.23861272 120.05069238 -282.9375 142.125 C-283.45199707 143.18009766 -283.96649414 144.23519531 -284.49658203 145.32226562 C-284.9604834 146.29099609 -285.42438477 147.25972656 -285.90234375 148.2578125 C-286.30960693 149.1048877 -286.71687012 149.95196289 -287.13647461 150.82470703 C-288.18448069 153.07465201 -288.18448069 153.07465201 -288 156 C-287.44054688 155.40574219 -286.88109375 154.81148437 -286.3046875 154.19921875 C-273.4564861 140.91723563 -255.57254378 124.91983336 -237 121 C-232.28230491 120.92390814 -230.72387437 121.38628043 -227.125 124.4375 C-224.48482695 127.62123809 -223.50604065 129.64619147 -223.609375 133.83984375 C-225.12371823 142.21416181 -231.70617161 149.44874376 -236.68652344 156.10839844 C-257.40804185 183.32918884 -257.40804185 183.32918884 -265 215 C-264.67 215.33 -264.34 215.66 -264 216 C-256.98363253 216 -252.96697985 212.71185408 -248 208 C-240.36168563 199.98390192 -234.05791047 191.04551245 -227.85864258 181.8918457 C-222.07497452 173.40841039 -222.07497452 173.40841039 -218 170 C-214.3125 169.5 -214.3125 169.5 -211 170 C-210.34 170.99 -209.68 171.98 -209 173 C-208.46632813 172.14019531 -207.93265625 171.28039063 -207.3828125 170.39453125 C-186.10495252 136.47765146 -186.10495252 136.47765146 -172 131 C-168.83370841 130.36989222 -166.14839517 130.24068117 -163 131 C-160.375 133.0625 -160.375 133.0625 -159 136 C-158.59520429 143.01645903 -162.74485198 146.94935693 -167 152 C-182.39962401 170.88883713 -199.87204688 193.71499372 -202.25 218.7578125 C-202.19700862 221.09953503 -202.19700862 221.09953503 -200.5 222.8046875 C-200.005 223.19914062 -199.51 223.59359375 -199 224 C-187.75711159 221.47035011 -180.06632838 210.00565423 -173.96875 201 C-171.89673113 197.71108116 -169.92000468 194.3789526 -168 191 C-167.46656982 190.06873291 -167.46656982 190.06873291 -166.92236328 189.11865234 C-162.053322 180.53065239 -158.00817436 171.80395329 -154.375 162.625 C-145.48663572 140.24331786 -145.48663572 140.24331786 -135 135 C-131.6875 134.5625 -131.6875 134.5625 -128 135 C-124.03945212 138.37067904 -123.12381376 139.48090038 -122.6953125 144.73828125 C-122.82103249 149.07239083 -124.08047152 152.74741086 -125.8125 156.6875 C-126.11583252 157.40446045 -126.41916504 158.1214209 -126.73168945 158.86010742 C-129.40540087 165.00997175 -132.52476824 170.90331052 -135.6875 176.8125 C-143.18318482 190.85099631 -148.68963606 204.23690993 -144.078125 220.23046875 C-141.84148512 225.97604004 -138.93279832 229.85463803 -133.625 233 C-132.75875 233.33 -131.8925 233.66 -131 234 C-130.78609619 233.17604736 -130.78609619 233.17604736 -130.56787109 232.33544922 C-128.32684287 224.28180512 -125.01137784 216.74514518 -121.625 209.125 C-120.99792068 207.70407587 -120.37096975 206.28309507 -119.74414062 204.86206055 C-113.68151444 191.15511501 -107.41456279 177.54587911 -101 164 C-100.44876465 162.83436523 -99.8975293 161.66873047 -99.32958984 160.46777344 C-86.98407698 134.43786312 -73.97011905 108.79857405 -59.60644531 83.81884766 C-57.94057838 80.89573222 -56.30616349 77.95692062 -54.6796875 75.01171875 C-46.4999056 60.20953851 -37.89898305 45.71290381 -29.03662109 31.31347656 C-27.08510439 28.13846042 -25.14475831 24.95688269 -23.20703125 21.7734375 C-22.05517048 19.89032949 -20.90285502 18.00749949 -19.75 16.125 C-19.23751709 15.28163086 -18.72503418 14.43826172 -18.19702148 13.56933594 C-9.34877238 -0.79226885 -9.34877238 -0.79226885 0 0 Z M-75.25 167.25 C-83.66860459 178.04262931 -90.00935652 189.85733181 -96.375 201.9375 C-96.88740234 202.90880859 -97.39980469 203.88011719 -97.92773438 204.88085938 C-100.66884971 210.16287577 -103.04820771 215.37697935 -105 221 C-101.96047161 224.32819869 -99.04673332 227.45509048 -94.59375 228.640625 C-85.9818249 229.02216599 -79.13537278 224.97791104 -72.625 219.6875 C-56.5138078 204.54411793 -36.67761992 175.35939852 -35.9140625 152.41796875 C-36.23410409 149.12865237 -36.63218381 147.36781619 -39 145 C-53.95224057 142.33217284 -66.72003941 156.66708909 -75.25 167.25 Z M-221 199 C-220 201 -220 201 -220 201 Z " fill="#F97910" transform="translate(2841,1370)"/>
<path d="M0 0 C0 13.86 0 27.72 0 42 C-4.28206223 41.28632296 -7.74083495 40.47418306 -11.75805664 39.03222656 C-40.2053309 28.82218212 -77.91764101 21.10067758 -106.78515625 33.78125 C-113.62887142 37.54710385 -118.42536575 42.58156232 -121 50 C-123.3541292 59.63771014 -122.83003116 69.42886811 -117.8046875 78.05078125 C-108.03938118 91.21605024 -89.34741562 93.98458123 -74.43847656 97.23925781 C-28.55622229 107.39042966 -28.55622229 107.39042966 -10 121 C-9.28457031 121.51304687 -8.56914062 122.02609375 -7.83203125 122.5546875 C3.680757 131.55143593 9.59834323 146.0262941 12 160 C12.41255579 164.78026598 12.47801846 169.51632696 12.4375 174.3125 C12.42505249 176.22107788 12.42505249 176.22107788 12.41235352 178.16821289 C12.05778092 197.93216523 6.15230104 215.65294253 -8 230 C-30.00116574 250.11278231 -60.99194469 256.21875261 -90 257 C-91.05960938 257.03996094 -92.11921875 257.07992188 -93.2109375 257.12109375 C-120.79919953 257.67810142 -149.20806539 253.3959673 -174 241 C-174 227.47 -174 213.94 -174 200 C-169.84540306 200.69243282 -166.71121183 201.32486494 -162.8671875 202.70703125 C-161.42484741 203.21351196 -161.42484741 203.21351196 -159.95336914 203.73022461 C-158.42957642 204.26595093 -158.42957642 204.26595093 -156.875 204.8125 C-146.06452619 208.51779258 -135.30086888 211.29368069 -124 213 C-123.33548828 213.1016748 -122.67097656 213.20334961 -121.98632812 213.30810547 C-115.17740654 214.20646036 -108.33055321 214.22103939 -101.47314453 214.24023438 C-99.39964812 214.24988528 -97.32716919 214.28097498 -95.25390625 214.3125 C-78.91413386 214.44206712 -60.83945206 211.86275808 -47.94140625 201.03125 C-39.87072354 192.58707493 -38.50645722 184.12763064 -38.73046875 172.92578125 C-39.21455334 165.87498398 -41.56019262 162.14018884 -46.5625 157.3125 C-58.60758712 147.53420049 -75.18009224 144.82818643 -89.99624634 141.73757935 C-117.99191825 135.84439432 -146.77532249 129.73338723 -163.875 104.625 C-174.52525122 86.70751853 -175.12360483 63.62189954 -170.375 43.6875 C-165.54839279 25.39361437 -154.21234069 9.6356081 -137.96728516 -0.21948242 C-96.71132962 -24.10719001 -42.62994543 -15.22498051 0 0 Z " fill="#005952" transform="translate(2544,1655)"/>
<path d="M0 0 C11.60001652 10.39081797 18.57650687 24.72869268 20.16136742 40.25458145 C20.27775843 43.06666066 20.31156596 45.86571899 20.30737305 48.68017578 C20.32266052 50.2587587 20.32266052 50.2587587 20.33825684 51.86923218 C20.3681997 55.31522109 20.37763827 58.76092962 20.38671875 62.20703125 C20.40360972 64.63867064 20.42176569 67.07030154 20.44111633 69.50192261 C20.48849202 75.89346602 20.51833983 82.28497526 20.54455566 88.67663574 C20.57411479 95.09699815 20.6209825 101.51723097 20.66601562 107.9375 C20.81700543 130.44169844 20.88905515 152.9444995 20.875 175.44921875 C7.015 175.44921875 -6.845 175.44921875 -21.125 175.44921875 C-22.77420633 172.15080609 -22.78986707 168.45298745 -23.1875 164.82421875 C-23.27837891 164.02242187 -23.36925781 163.220625 -23.46289062 162.39453125 C-23.68697653 160.41314007 -23.9064275 158.4312257 -24.125 156.44921875 C-24.99125 157.41859375 -25.8575 158.38796875 -26.75 159.38671875 C-40.75511655 173.33524897 -59.82995151 180.09653718 -79.3125 180.63671875 C-98.08983595 180.31072333 -115.66319782 174.46134451 -128.9375 160.88671875 C-140.7075313 146.29187993 -144.63562619 128.0116552 -142.734375 109.68359375 C-140.42821525 93.24330043 -132.76631611 78.73114803 -119.53515625 68.43359375 C-103.08322133 57.32068617 -85.57904009 53.84904034 -66.0625 54.01171875 C-65.35408966 54.01276611 -64.64567932 54.01381348 -63.915802 54.01489258 C-51.33607337 54.05304669 -39.37950124 55.51338102 -27.125 58.44921875 C-28.07772159 46.98812024 -29.07522289 36.90070107 -37.875 28.57421875 C-50.592785 18.49015415 -66.60996112 18.5197577 -82.0625 20.13671875 C-97.55543009 21.96300763 -112.27799392 26.80952935 -127.125 31.44921875 C-127.125 19.23921875 -127.125 7.02921875 -127.125 -5.55078125 C-90.53022288 -23.84816981 -33.09816696 -27.80368914 0 0 Z M-89.4375 100.69921875 C-93.99972112 106.55427637 -95.74242603 112.45122213 -95.46875 119.86328125 C-94.63382732 126.14417686 -92.54751559 131.56761669 -87.8125 135.88671875 C-80.0809503 141.7474652 -71.62709509 143.15258612 -62.125 142.44921875 C-53.03968766 141.0963512 -44.65866709 137.71482411 -37.125 132.44921875 C-36.26632324 131.88178955 -35.40764648 131.31436035 -34.52294922 130.72973633 C-30.33404403 127.56784358 -27.53978272 125.23539109 -26.32470703 120.00292969 C-26.1418408 116.08523608 -26.24926304 112.30014402 -26.5 108.38671875 C-26.55026256 107.03076467 -26.59587215 105.67462975 -26.63671875 104.31835938 C-26.75395703 101.0239637 -26.91777633 97.7389742 -27.125 94.44921875 C-40.03933758 91.84102875 -40.03933758 91.84102875 -53.125 90.44921875 C-53.96933594 90.39636719 -54.81367187 90.34351563 -55.68359375 90.2890625 C-67.37980062 89.89862308 -81.10540475 91.7792141 -89.4375 100.69921875 Z " fill="#005952" transform="translate(2013.125,1731.55078125)"/>
<path d="M0 0 C20.79427985 16.68449593 31.22842539 39.69548003 34.5 65.80859375 C37.53593233 94.19563002 32.83771307 124.33436596 15.0625 147.375 C13.72944517 148.93495778 12.37544137 150.47728384 11 152 C10.33613281 152.75667969 9.67226562 153.51335937 8.98828125 154.29296875 C-6.5871763 171.02003129 -29.80845758 179.66391263 -52.33203125 180.91015625 C-53.21246094 180.93980469 -54.09289063 180.96945312 -55 181 C-55.76699219 181.03996094 -56.53398438 181.07992188 -57.32421875 181.12109375 C-84.27561849 181.89897795 -109.73187684 173.38619821 -129.5625 154.9375 C-151.9037702 131.59527683 -155.78768481 101.21858701 -155.23699951 70.25920105 C-155.0076403 61.52496244 -153.7067754 53.31190163 -151 45 C-150.67854004 44.00347412 -150.67854004 44.00347412 -150.35058594 42.98681641 C-145.71249016 29.17042192 -138.27891138 17.29612899 -128 7 C-127.24074219 6.22914062 -126.48148438 5.45828125 -125.69921875 4.6640625 C-116.72015106 -3.94761289 -106.54885082 -9.41422918 -94.875 -13.375 C-94.17181641 -13.61371826 -93.46863281 -13.85243652 -92.74414062 -14.09838867 C-62.55863649 -23.67861353 -25.37441862 -19.44180807 0 0 Z M-93.375 35.03515625 C-106.3074985 50.67228785 -108.26164089 71.45265357 -107 91 C-105.45756909 106.37695375 -100.33361149 120.80278785 -89.12890625 131.84375 C-79.4661141 139.71862427 -67.27825951 142.93383946 -55 142 C-43.45229591 140.2023363 -33.34181854 135.26385122 -26 126 C-13.32273937 107.97787737 -11.35935439 84.34338128 -14.6484375 62.96875 C-17.19408358 49.8544638 -23.31936955 36.32631637 -34.34765625 28.2890625 C-36.8436128 26.70738988 -39.35777349 25.32111325 -42 24 C-42.66257812 23.65839844 -43.32515625 23.31679687 -44.0078125 22.96484375 C-61.10290532 15.75808893 -81.16248326 22.11589665 -93.375 35.03515625 Z " fill="#005952" transform="translate(1261,1731)"/>
<path d="M0 0 C21.96818716 17.45188472 29.13952108 39.97664757 33 67 C33 77.89 33 88.78 33 100 C-7.92 100 -48.84 100 -91 100 C-86.7802013 116.8791948 -83.3875322 129.3184157 -68.5 138.8125 C-39.55359045 154.60478166 -3.60871862 144.8956583 26 137 C26 149.54 26 162.08 26 175 C18.11111111 178.38095238 18.11111111 178.38095238 14.03125 179.31640625 C12.69139038 179.62529785 12.69139038 179.62529785 11.32446289 179.94042969 C10.39239014 180.14571289 9.46031738 180.35099609 8.5 180.5625 C7.03904907 180.88782715 7.03904907 180.88782715 5.54858398 181.21972656 C-27.81689635 188.47704203 -68.7598395 190.27163155 -99.23046875 172.0703125 C-119.29175398 158.85291238 -131.82706649 139.80551065 -136.84643555 116.42944336 C-143.09876953 85.08912775 -138.94403557 51.33424606 -122 24 C-119.52812248 20.46531133 -116.89183925 17.19803399 -114 14 C-113.36320312 13.29359375 -112.72640625 12.5871875 -112.0703125 11.859375 C-84.35087602 -17.30726097 -33.38917523 -22.22870506 0 0 Z M-78.75 37.1015625 C-84.62100271 45.40903134 -86.87506594 52.87559346 -88 63 C-64.24 63 -40.48 63 -16 63 C-16 50.61633192 -18.80741516 41.42233859 -27 32 C-33.44005607 25.81278678 -41.12390769 23.84942106 -49.875 23.5625 C-61.48026484 23.86231309 -71.24396261 28.08761582 -78.75 37.1015625 Z " fill="#005952" transform="translate(1626,1726)"/>
<path d="M0 0 C13.34754329 11.52103736 21.17182139 25.61378236 22.55309105 43.3749485 C22.65076585 47.06704542 22.65682742 50.74742468 22.62573242 54.44067383 C22.62488369 55.84158815 22.62536607 57.2425038 22.62705994 58.64341736 C22.62791174 62.40297875 22.61042009 66.16224606 22.58933806 69.92173982 C22.57043347 73.86681216 22.56881007 77.81189313 22.56526184 81.75700378 C22.55598148 89.20815455 22.53142274 96.65917141 22.50121337 104.11026353 C22.46754361 112.60131555 22.45115191 121.09237437 22.43612707 129.58347666 C22.404869 147.03230468 22.34990788 164.48094941 22.28515625 181.9296875 C6.77515625 181.9296875 -8.73484375 181.9296875 -24.71484375 181.9296875 C-24.72418945 178.01891357 -24.73353516 174.10813965 -24.74316406 170.07885742 C-24.77697384 157.13873425 -24.83234563 144.19877805 -24.89874649 131.25878429 C-24.93847044 123.41543953 -24.97089652 115.57219413 -24.98583984 107.72875977 C-24.99889098 100.88838494 -25.0259433 94.04822937 -25.06945682 87.20797807 C-25.09199438 83.58971564 -25.10775911 79.97172285 -25.1067276 76.35338402 C-25.10583636 72.30323482 -25.13621883 68.25387467 -25.16894531 64.20385742 C-25.16391495 63.01845871 -25.15888458 61.83306 -25.15370178 60.61174011 C-25.27229816 51.08694411 -27.02225501 41.44075133 -33.92578125 34.3671875 C-42.40507549 27.55413012 -53.37305267 27.84670443 -63.71484375 28.9296875 C-77.7915431 31.60095881 -88.84308105 38.81417757 -98.71484375 48.9296875 C-100.93788316 52.26424661 -100.97080523 53.33502954 -100.99331665 57.22575378 C-101.00448013 58.3237178 -101.01564362 59.42168182 -101.02714539 60.55291748 C-101.02930557 61.75772766 -101.03146576 62.96253784 -101.03369141 64.20385742 C-101.04875984 66.1064608 -101.04875984 66.1064608 -101.06413269 68.04750061 C-101.09146232 71.52653797 -101.10659079 75.00553478 -101.11956072 78.48465133 C-101.13517835 82.12021147 -101.16197291 85.75568863 -101.18759155 89.39118958 C-101.23440362 96.27592253 -101.27113594 103.16067106 -101.30426443 110.04548198 C-101.34246869 117.88342219 -101.39188327 125.72127911 -101.44224858 133.55914915 C-101.54560457 149.68260785 -101.63337302 165.8061011 -101.71484375 181.9296875 C-117.22484375 181.9296875 -132.73484375 181.9296875 -148.71484375 181.9296875 C-148.71484375 119.5596875 -148.71484375 57.1896875 -148.71484375 -7.0703125 C-135.84484375 -7.0703125 -122.97484375 -7.0703125 -109.71484375 -7.0703125 C-107.46484375 0.8046875 -107.46484375 0.8046875 -106.86328125 4.33203125 C-106.734375 5.07646484 -106.60546875 5.82089844 -106.47265625 6.58789062 C-106.28316406 7.71614258 -106.28316406 7.71614258 -106.08984375 8.8671875 C-105.88875 10.03604492 -105.88875 10.03604492 -105.68359375 11.22851562 C-105.35724695 13.12832021 -105.03555752 15.02892387 -104.71484375 16.9296875 C-103.80605469 15.86041016 -103.80605469 15.86041016 -102.87890625 14.76953125 C-78.53879578 -13.05308734 -31.10911363 -23.72349673 0 0 Z " fill="#005952" transform="translate(880.71484375,1725.0703125)"/>
<path d="M0 0 C1.60892331 1.38753546 3.19339466 2.80401636 4.75 4.25 C5.81541016 5.23419922 5.81541016 5.23419922 6.90234375 6.23828125 C20.43073004 20.02632947 23.25079427 39.20655909 23.09057617 57.71264648 C23.08972684 59.08429953 23.09021099 60.45595394 23.09190369 61.8276062 C23.09275314 65.49821266 23.07530097 69.16851599 23.05418181 72.83905292 C23.03523669 76.69469272 23.0336507 80.55034194 23.03010559 84.40602112 C23.02083688 91.68356879 22.9962944 98.96097884 22.96605712 106.23846632 C22.93235047 114.53367915 22.91598651 122.82889908 22.90097082 131.12416351 C22.86973923 148.16620192 22.81479323 165.20805111 22.75 182.25 C7.24 182.25 -8.27 182.25 -24.25 182.25 C-24.2593457 178.41028564 -24.26869141 174.57057129 -24.27832031 170.61450195 C-24.31215669 157.89790903 -24.36754389 145.18148552 -24.43390274 132.46502399 C-24.4735962 124.7584991 -24.50603763 117.05207488 -24.52099609 109.34545898 C-24.53406319 102.62299062 -24.56115553 95.90074469 -24.60461307 89.17840165 C-24.6271152 85.62379081 -24.64291752 82.06945315 -24.64188385 78.51476479 C-24.64098992 74.5320754 -24.67142949 70.55018266 -24.70410156 66.56762695 C-24.6990712 65.40812027 -24.69404083 64.24861359 -24.68885803 63.05397034 C-24.80130095 54.13716118 -26.00856437 44.06514413 -31.5 36.6875 C-40.16553153 29.00668796 -49.88430599 28.62457959 -60.96435547 29.07080078 C-75.36423001 30.19978048 -87.25737819 38.46245065 -97.25 48.25 C-97.77995984 48.67728299 -98.30991968 49.10456598 -98.85593891 49.54479694 C-100.79984289 51.9225629 -100.63413832 53.53490839 -100.64872742 56.58403015 C-100.66126556 57.69040833 -100.67380371 58.7967865 -100.6867218 59.93669128 C-100.68528671 61.1508522 -100.68385162 62.36501312 -100.68237305 63.6159668 C-100.6925647 64.89412262 -100.70275635 66.17227844 -100.71325684 67.48916626 C-100.74087477 70.99509764 -100.75011776 74.50086683 -100.75611091 78.00689292 C-100.7654822 81.67049849 -100.79168451 85.33398231 -100.81611633 88.99751282 C-100.85981945 95.93537681 -100.88834292 102.87321722 -100.91143972 109.81117707 C-100.93847103 117.70959429 -100.98238375 125.60788926 -101.02772844 133.50621927 C-101.12062934 149.75409712 -101.19005636 166.00196206 -101.25 182.25 C-116.76 182.25 -132.27 182.25 -148.25 182.25 C-148.25 119.88 -148.25 57.51 -148.25 -6.75 C-135.38 -6.75 -122.51 -6.75 -109.25 -6.75 C-108.26 -1.8 -107.27 3.15 -106.25 8.25 C-105.59429995 11.25241601 -104.93335367 14.25375698 -104.25 17.25 C-103.63125 16.50556641 -103.63125 16.50556641 -103 15.74609375 C-79.10825498 -12.35870452 -31.1724086 -23.90201452 0 0 Z " fill="#005952" transform="translate(1454.25,1724.75)"/>
<path d="M0 0 C1.91039062 0.00845947 1.91039062 0.00845947 3.859375 0.01708984 C21.90582021 0.24630148 42.69584334 2.09792167 59.125 10.3125 C59.125 22.8525 59.125 35.3925 59.125 48.3125 C51.28608874 47.19265553 51.28608874 47.19265553 47.55078125 46.2265625 C14.26796151 37.05019791 14.26796151 37.05019791 -18.25 43.6875 C-22.21680359 46.36883841 -24.34664477 48.72743432 -25.875 53.3125 C-26.34037858 58.05936156 -26.03442757 62.07327926 -23.65600586 66.21972656 C-17.0771032 73.95027537 -3.86431679 76.75567502 5.51721191 78.91604614 C8.92036409 79.70377017 12.3073319 80.55601113 15.6953125 81.40625 C16.67836365 81.65182396 16.67836365 81.65182396 17.68127441 81.90235901 C34.13502851 86.05887773 50.11031826 92.59825658 59.875 107.1875 C67.67126334 120.39498559 68.04186999 137.73997427 64.9375 152.4375 C60.79549352 167.5028445 51.46264958 179.67616562 37.92285156 187.44458008 C9.52147028 203.03360639 -27.13006444 202.03885908 -57.85546875 194.5078125 C-62.93326645 192.99779686 -67.89638486 191.1229055 -72.875 189.3125 C-72.875 176.7725 -72.875 164.2325 -72.875 151.3125 C-62.82720066 153.5453443 -62.82720066 153.5453443 -58.68359375 154.56640625 C-57.80123047 154.78103516 -56.91886719 154.99566406 -56.00976562 155.21679688 C-54.20700002 155.65671868 -52.40491588 156.09944222 -50.60351562 156.54492188 C-40.86543252 158.90286299 -31.68934733 159.51812131 -21.6875 159.5625 C-20.54474609 159.583125 -19.40199219 159.60375 -18.22460938 159.625 C-6.94969464 159.67598887 4.01833373 158.41794825 13.125 151.3125 C13.90875 150.755625 14.6925 150.19875 15.5 149.625 C18.60799243 145.2020877 19.56069115 140.0552795 18.71484375 134.73046875 C18.01927872 132.37771053 17.41344427 130.40284315 16.125 128.3125 C14.81046164 127.6094985 13.47348994 126.94795032 12.125 126.3125 C11.47869629 125.94366699 10.83239258 125.57483398 10.16650391 125.19482422 C1.3883086 120.37415643 -8.20682865 118.30766118 -17.83642578 115.83837891 C-35.99877218 111.14799779 -54.60057533 105.43885369 -65.875 89.3125 C-73.58972466 75.102217 -74.37746519 57.09973821 -70.3125 41.5 C-68.11183171 35.12271125 -64.89353761 29.70489662 -60.875 24.3125 C-60.37484375 23.60609375 -59.8746875 22.8996875 -59.359375 22.171875 C-45.53261471 4.43451584 -21.12555229 -0.09853336 0 0 Z " fill="#005952" transform="translate(1734.875,1712.6875)"/>
<path d="M0 0 C16.17 0 32.34 0 49 0 C49 86.13 49 172.26 49 261 C32.83 261 16.66 261 0 261 C0 174.87 0 88.74 0 0 Z " fill="#005952" transform="translate(2798,1646)"/>
<path d="M0 0 C15.84 0 31.68 0 48 0 C48 86.13 48 172.26 48 261 C32.16 261 16.32 261 0 261 C0 174.87 0 88.74 0 0 Z " fill="#005952" transform="translate(658,1646)"/>
<path d="M0 0 C15.51 0 31.02 0 47 0 C47 62.37 47 124.74 47 189 C31.49 189 15.98 189 0 189 C0 126.63 0 64.26 0 0 Z " fill="#005952" transform="translate(1811,1718)"/>
<path d="M0 0 C16.5 0 33 0 50 0 C50 16.83 50 33.66 50 51 C33.5 51 17 51 0 51 C0 34.17 0 17.34 0 0 Z " fill="#005952" transform="translate(1810,1624)"/>
</svg>
